<svg width="12" height="12" viewBox="0 0 12 12" fill="none" xmlns="http://www.w3.org/2000/svg">
<g clip-path="url(#clip0_11_14931)">
<path d="M3.20566 0.398979C1.659 0.398979 0.39917 1.65898 0.39917 3.20565V8.79436C0.39917 10.341 1.65882 11.601 3.20566 11.601H8.79437C10.341 11.601 11.601 10.341 11.601 8.79436V3.20547C11.601 1.65881 10.341 0.398804 8.79437 0.398804L3.20566 0.398979ZM3.20566 1.33672H8.79437C9.83788 1.33672 10.6635 2.16214 10.6635 3.20565V8.79436C10.6635 9.83787 9.83788 10.6631 8.79437 10.6631H3.20566C2.16215 10.6631 1.33673 9.83787 1.33673 8.79436V3.20547C1.33673 2.16196 2.16215 1.33672 3.20566 1.33672ZM6.1103 2.7661C5.98603 2.76787 5.86755 2.81892 5.78091 2.90802C5.69426 2.99712 5.64655 3.11699 5.64825 3.24126V5.50048H3.38938C3.32676 5.49876 3.26443 5.50961 3.20607 5.53238C3.14771 5.55516 3.09451 5.5894 3.0496 5.63308C3.0047 5.67676 2.96901 5.729 2.94464 5.78672C2.92027 5.84443 2.90771 5.90644 2.90771 5.96909C2.90771 6.03173 2.92027 6.09375 2.94464 6.15146C2.96901 6.20917 3.0047 6.26141 3.0496 6.30509C3.09451 6.34878 3.14771 6.38302 3.20607 6.40579C3.26443 6.42857 3.32676 6.43941 3.38938 6.43769H5.64825V8.69656C5.64704 8.7589 5.65827 8.82086 5.68129 8.8788C5.70431 8.93675 5.73865 8.98953 5.78231 9.03404C5.82597 9.07856 5.87807 9.11392 5.93556 9.13806C5.99304 9.1622 6.05477 9.17464 6.11712 9.17464C6.17947 9.17464 6.2412 9.1622 6.29869 9.13806C6.35618 9.11392 6.40827 9.07856 6.45193 9.03404C6.49559 8.98953 6.52993 8.93675 6.55295 8.8788C6.57597 8.82086 6.5872 8.7589 6.58599 8.69656V6.43769H8.84486C8.90748 6.43941 8.96982 6.42857 9.02817 6.40579C9.08653 6.38302 9.13974 6.34878 9.18464 6.30509C9.22954 6.26141 9.26523 6.20917 9.2896 6.15146C9.31397 6.09375 9.32653 6.03173 9.32653 5.96909C9.32653 5.90644 9.31397 5.84443 9.2896 5.78672C9.26523 5.729 9.22954 5.67676 9.18464 5.63308C9.13974 5.5894 9.08653 5.55516 9.02817 5.53238C8.96982 5.50961 8.90748 5.49876 8.84486 5.50048H6.58599V3.24126C6.58685 3.17858 6.57513 3.11636 6.55152 3.05829C6.52792 3.00021 6.4929 2.94747 6.44855 2.90316C6.4042 2.85886 6.35141 2.82391 6.29331 2.80036C6.23521 2.77682 6.17298 2.76517 6.1103 2.7661Z" fill="white"/>
</g>
<defs>
<clipPath id="clip0_11_14931">
<rect width="12" height="12" fill="white"/>
</clipPath>
</defs>
</svg>
