<svg width="18" height="19" viewBox="0 0 18 19" fill="none" xmlns="http://www.w3.org/2000/svg">
<path fill-rule="evenodd" clip-rule="evenodd" d="M2.56429 1.7C2.36313 1.7 2.1514 1.78731 1.98153 1.97449C1.80917 2.1644 1.7 2.43818 1.7 2.73889V15.9611C1.7 16.2618 1.80917 16.5356 1.98153 16.7255C2.1514 16.9127 2.36313 17 2.56429 17H12V8.85V2.73889C12 2.43818 11.8908 2.1644 11.7185 1.97449C11.5486 1.78731 11.3369 1.7 11.1357 1.7H2.56429ZM2.56429 18.7H12.85H14.85C15.6059 18.7 16.3308 18.3997 16.8653 17.8653C17.3997 17.3308 17.7 16.6059 17.7 15.85V8.85C17.7 8.38056 17.3194 8 16.85 8H13.7V2.73889C13.7 2.03766 13.4479 1.35055 12.9773 0.831997C12.5042 0.310703 11.8439 0 11.1357 0H2.56429C1.85612 0 1.19578 0.310703 0.722675 0.831997C0.252054 1.35055 0 2.03767 0 2.73889V15.9611C0 16.6623 0.252054 17.3494 0.722675 17.868C1.19578 18.3893 1.85612 18.7 2.56429 18.7ZM13.7 17V9.7H16V15.85C16 16.155 15.8788 16.4475 15.6632 16.6632C15.4475 16.8788 15.155 17 14.85 17H13.7ZM4.85 5C4.38056 5 4 5.38056 4 5.85C4 6.31944 4.38056 6.7 4.85 6.7H8.85C9.31944 6.7 9.7 6.31944 9.7 5.85C9.7 5.38056 9.31944 5 8.85 5H4.85ZM4 8.85C4 8.38056 4.38056 8 4.85 8H8.85C9.31944 8 9.7 8.38056 9.7 8.85C9.7 9.31944 9.31944 9.7 8.85 9.7H4.85C4.38056 9.7 4 9.31944 4 8.85ZM4.85 12C4.38056 12 4 12.3806 4 12.85C4 13.3194 4.38056 13.7 4.85 13.7H7.85C8.31944 13.7 8.7 13.3194 8.7 12.85C8.7 12.3806 8.31944 12 7.85 12H4.85Z" fill="#9A9A9A"/>
</svg>
