<svg width="20" height="18" viewBox="0 0 20 18" fill="none" xmlns="http://www.w3.org/2000/svg">
<path fill-rule="evenodd" clip-rule="evenodd" d="M15.7 3.62778C15.7 3.0587 15.7007 2.649 15.7281 2.32884C15.7562 2.00184 15.8055 1.88189 15.8289 1.84287C15.8349 1.83281 15.8373 1.83107 15.8404 1.82877L15.8409 1.82841C15.8474 1.82366 15.8749 1.8052 15.9444 1.78372C16.1003 1.73561 16.3712 1.7 16.85 1.7C17.3288 1.7 17.5997 1.73561 17.7556 1.78372C17.8252 1.8052 17.8526 1.82366 17.8591 1.82841L17.8596 1.82877C17.8627 1.83107 17.8651 1.83281 17.8711 1.84287C17.8945 1.88189 17.9438 2.00184 17.9719 2.32884C17.9993 2.649 18 3.0587 18 3.62778V3.64084V3.65399V3.66723V3.68055V3.69396V3.70745V3.72102V3.73468V3.74843V3.76225V3.77616V3.79016V3.80423V3.81839V3.83263V3.84695V3.86135V3.87583V3.89039V3.90504V3.91976V3.93456V3.94944V3.9644V3.97944V3.99456V4.00975V4.02502V4.04037V4.05579V4.07129V4.08687V4.10252V4.11825V4.13405V4.14993V4.16588V4.18191V4.19801V4.21418V4.23043V4.24675V4.26314V4.2796V4.29613V4.31274V4.32941V4.34616V4.36298V4.37987V4.39682V4.41385V4.43094V4.44811V4.46534V4.48264V4.5V4.51744V4.53494V4.55251V4.57014V4.58784V4.60561V4.62344V4.64133V4.65929V4.67732V4.6954V4.71356V4.73177V4.75005V4.76839V4.78679V4.80525V4.82378V4.84236V4.86101V4.87972V4.89849V4.91731V4.9362V4.95515V4.97415V4.99322V5.01234V5.03152V5.05075V5.07005V5.0894V5.1088V5.12827V5.14779V5.16736V5.18699V5.20667V5.22641V5.2462V5.26605V5.28595V5.3059V5.3259V5.34596V5.36607V5.38623V5.40644V5.42671V5.44702V5.46739V5.4878V5.50826V5.52878V5.54934V5.56995V5.59061V5.61132V5.63207V5.65287V5.67372V5.69462V5.71556V5.73655V5.75758V5.77866V5.79978V5.82095V5.84216V5.86342V5.88472V5.90606V5.92745V5.94888V5.97035V5.99186V6.01342V6.03501V6.05665V6.07833V6.10004V6.1218V6.1436V6.16543V6.18731V6.20922V6.23117V6.25316V6.27519V6.29725V6.31935V6.34149V6.36366V6.38587V6.40811V6.43039V6.45271V6.47506V6.49744V6.51986V6.5423V6.56479V6.5873V6.60985V6.63243V6.65504V6.67769V6.70036V6.72307V6.7458V6.76857V6.79137V6.81419V6.83704V6.85993V6.88284V6.90578V6.92874V6.95174V6.97476V6.99781V7.02088V7.04398V7.06711V7.09026V7.11343V7.13664V7.15986V7.18311V7.20638V7.22968V7.253V7.27634V7.2997V7.32309V7.3465V7.36993V7.39338V7.41685V7.44034V7.46385V7.48738V7.51093V7.53449V7.55808V7.58169V7.60531V7.62895V7.65261V7.67628V7.69997V7.72368V7.74741V7.77114V7.7949V7.81867V7.84245V7.86625V7.89006V7.91389V7.93772V7.96157V7.98544V8.00931V8.0332V8.0571V8.08101V8.10493V8.12886V8.1528V8.17676V8.20072V8.22469V8.24866V8.27265V8.29665V8.32065V8.34466V8.36868V8.3927V8.41673V8.44077V8.46481V8.48886V8.51291V8.53697V8.56103V8.5851V8.60917V8.63324V8.65732V8.6814V8.70548V8.72956V8.75365V8.77773V8.80182V8.82591V8.85V8.87409V8.89818V8.92226V8.94635V8.97043V8.99452V9.0186V9.04268V9.06676V9.09083V9.1149V9.13896V9.16303V9.18708V9.21114V9.23519V9.25923V9.28326V9.30729V9.33132V9.35534V9.37935V9.40335V9.42735V9.45133V9.47531V9.49928V9.52324V9.54719V9.57113V9.59507V9.61899V9.6429V9.6668V9.69068V9.71456V9.73842V9.76227V9.78611V9.80994V9.83375V9.85755V9.88133V9.9051V9.92885V9.95259V9.97632V10V10.0237V10.0474V10.071V10.0947V10.1183V10.1419V10.1655V10.1891V10.2126V10.2362V10.2597V10.2832V10.3066V10.3301V10.3535V10.3769V10.4003V10.4237V10.447V10.4703V10.4936V10.5169V10.5401V10.5634V10.5866V10.6097V10.6329V10.656V10.6791V10.7022V10.7252V10.7483V10.7713V10.7942V10.8172V10.8401V10.863V10.8858V10.9086V10.9314V10.9542V10.9769V10.9996V11.0223V11.045V11.0676V11.0901V11.1127V11.1352V11.1577V11.1801V11.2026V11.2249V11.2473V11.2696V11.2919V11.3141V11.3363V11.3585V11.3806V11.4027V11.4248V11.4468V11.4688V11.4908V11.5127V11.5346V11.5564V11.5782V11.6V11.6217V11.6433V11.665V11.6866V11.7081V11.7296V11.7511V11.7725V11.7939V11.8153V11.8366V11.8578V11.879V11.9002V11.9213V11.9424V11.9634V11.9844V12.0054V12.0263V12.0471V12.0679V12.0887V12.1094V12.13V12.1507V12.1712V12.1917V12.2122V12.2326V12.253V12.2733V12.2936V12.3138V12.3339V12.354V12.3741V12.3941V12.4141V12.434V12.4538V12.4736V12.4933V12.513V12.5326V12.5522V12.5717V12.5912V12.6106V12.63V12.6492V12.6685V12.6877V12.7068V12.7258V12.7449V12.7638V12.7827V12.8015V12.8203V12.839V12.8576V12.8762V12.8947V12.9132V12.9316V12.95V12.9682V12.9864V13.0046V13.0227V13.0407V13.0587V13.0766V13.0944V13.1122V13.1299V13.1475V13.1651V13.1826V13.2V13.2174V13.2347V13.2519V13.2691V13.2861V13.3032V13.3201V13.337V13.3538V13.3706V13.3873V13.4039V13.4204V13.4369V13.4533V13.4696V13.4858V13.502V13.5181V13.5341V13.5501V13.5659V13.5817V13.5975V13.6131V13.6287V13.6442V13.6596V13.675V13.6902V13.7054V13.7206V13.7356V13.7506V13.7654V13.7802V13.795V13.8096V13.8242V13.8386V13.8531V13.8674V13.8816V13.8958V13.9098V13.9238V13.9377V13.9516V13.9653V13.979V13.9926V14.006V14.0194V14.0328V14.046V14.0592V14.0722C18 14.7444 17.9618 15.1997 17.899 15.5086C17.8358 15.8189 17.7623 15.9065 17.7498 15.9198C17.7453 15.9246 17.7412 15.9284 17.7281 15.9345C17.7112 15.9425 17.6741 15.9564 17.6015 15.9689C17.4359 15.9974 17.2187 16 16.85 16C16.4756 16 16.2556 15.9974 16.0887 15.9688C16.0157 15.9563 15.979 15.9424 15.9629 15.9348C15.9509 15.9291 15.948 15.9261 15.9445 15.9224C15.9335 15.9106 15.8609 15.8242 15.7987 15.5121C15.7369 15.202 15.7 14.7456 15.7 14.0722V3.62778ZM16.85 0C15.8837 0 14.8908 0.102141 14.3711 0.968236C14.1445 1.34589 14.0688 1.78149 14.0344 2.18366C14 2.58476 14 3.06672 14 3.59641V3.59642V3.62778V14.0722C14 14.7877 14.0376 15.373 14.1314 15.8442C14.2249 16.3133 14.389 16.7477 14.7025 17.0832C15.0318 17.4355 15.4335 17.5813 15.8017 17.6444C16.1275 17.7002 16.4914 17.7001 16.8097 17.7L16.85 17.7L16.8897 17.7C17.2032 17.7001 17.5646 17.7002 17.8898 17.6443C18.2569 17.5811 18.6573 17.4356 18.987 17.0857C19.3017 16.7518 19.469 16.3186 19.5648 15.8477C19.661 15.3753 19.7 14.789 19.7 14.0722V14.0592V14.046V14.0328V14.0194V14.006V13.9926V13.979V13.9653V13.9516V13.9377V13.9238V13.9098V13.8958V13.8816V13.8674V13.8531V13.8386V13.8242V13.8096V13.795V13.7802V13.7654V13.7506V13.7356V13.7206V13.7054V13.6902V13.675V13.6596V13.6442V13.6287V13.6131V13.5975V13.5817V13.5659V13.5501V13.5341V13.5181V13.502V13.4858V13.4696V13.4533V13.4369V13.4204V13.4039V13.3873V13.3706V13.3538V13.337V13.3201V13.3032V13.2861V13.2691V13.2519V13.2347V13.2174V13.2V13.1826V13.1651V13.1475V13.1299V13.1122V13.0944V13.0766V13.0587V13.0407V13.0227V13.0046V12.9864V12.9682V12.95V12.9316V12.9132V12.8947V12.8762V12.8576V12.839V12.8203V12.8015V12.7827V12.7638V12.7449V12.7258V12.7068V12.6877V12.6685V12.6492V12.63V12.6106V12.5912V12.5717V12.5522V12.5326V12.513V12.4933V12.4736V12.4538V12.434V12.4141V12.3941V12.3741V12.354V12.3339V12.3138V12.2936V12.2733V12.253V12.2326V12.2122V12.1917V12.1712V12.1507V12.13V12.1094V12.0887V12.0679V12.0471V12.0263V12.0054V11.9844V11.9634V11.9424V11.9213V11.9002V11.879V11.8578V11.8366V11.8153V11.7939V11.7725V11.7511V11.7296V11.7081V11.6866V11.665V11.6433V11.6217V11.6V11.5782V11.5564V11.5346V11.5127V11.4908V11.4688V11.4468V11.4248V11.4027V11.3806V11.3585V11.3363V11.3141V11.2919V11.2696V11.2473V11.2249V11.2026V11.1801V11.1577V11.1352V11.1127V11.0901V11.0676V11.045V11.0223V10.9996V10.9769V10.9542V10.9314V10.9086V10.8858V10.863V10.8401V10.8172V10.7942V10.7713V10.7483V10.7252V10.7022V10.6791V10.656V10.6329V10.6097V10.5866V10.5634V10.5401V10.5169V10.4936V10.4703V10.447V10.4237V10.4003V10.3769V10.3535V10.3301V10.3066V10.2832V10.2597V10.2362V10.2126V10.1891V10.1655V10.1419V10.1183V10.0947V10.071V10.0474V10.0237V10V9.97632V9.95259V9.92885V9.9051V9.88133V9.85755V9.83375V9.80994V9.78611V9.76227V9.73842V9.71456V9.69068V9.6668V9.6429V9.61899V9.59507V9.57113V9.54719V9.52324V9.49928V9.47531V9.45133V9.42735V9.40335V9.37935V9.35534V9.33132V9.30729V9.28326V9.25923V9.23519V9.21114V9.18708V9.16303V9.13896V9.1149V9.09083V9.06676V9.04268V9.0186V8.99452V8.97043V8.94635V8.92226V8.89818V8.87409V8.85V8.82591V8.80182V8.77773V8.75365V8.72956V8.70548V8.6814V8.65732V8.63324V8.60917V8.5851V8.56103V8.53697V8.51291V8.48886V8.46481V8.44077V8.41673V8.3927V8.36868V8.34466V8.32065V8.29665V8.27265V8.24866V8.22469V8.20072V8.17676V8.1528V8.12886V8.10493V8.08101V8.0571V8.0332V8.00931V7.98544V7.96157V7.93772V7.91389V7.89006V7.86625V7.84245V7.81867V7.7949V7.77114V7.74741V7.72368V7.69997V7.67628V7.65261V7.62895V7.60531V7.58169V7.55808V7.53449V7.51093V7.48738V7.46385V7.44034V7.41685V7.39338V7.36993V7.3465V7.32309V7.2997V7.27634V7.253V7.22968V7.20638V7.18311V7.15986V7.13664V7.11343V7.09026V7.06711V7.04398V7.02088V6.99781V6.97476V6.95174V6.92874V6.90578V6.88284V6.85993V6.83704V6.81419V6.79137V6.76857V6.7458V6.72307V6.70036V6.67769V6.65504V6.63243V6.60985V6.5873V6.56479V6.5423V6.51986V6.49744V6.47506V6.45271V6.43039V6.40811V6.38587V6.36366V6.34149V6.31935V6.29725V6.27519V6.25316V6.23117V6.20922V6.18731V6.16543V6.1436V6.1218V6.10004V6.07833V6.05665V6.03501V6.01342V5.99186V5.97035V5.94888V5.92745V5.90606V5.88472V5.86342V5.84216V5.82095V5.79978V5.77866V5.75758V5.73655V5.71556V5.69462V5.67372V5.65287V5.63207V5.61132V5.59061V5.56995V5.54934V5.52878V5.50826V5.4878V5.46739V5.44702V5.42671V5.40644V5.38623V5.36607V5.34596V5.3259V5.3059V5.28595V5.26605V5.2462V5.22641V5.20667V5.18699V5.16736V5.14779V5.12827V5.1088V5.0894V5.07005V5.05075V5.03152V5.01234V4.99322V4.97415V4.95515V4.9362V4.91731V4.89849V4.87972V4.86101V4.84236V4.82378V4.80525V4.78679V4.76839V4.75005V4.73177V4.71356V4.6954V4.67732V4.65929V4.64133V4.62344V4.60561V4.58784V4.57014V4.55251V4.53494V4.51744V4.5V4.48264V4.46534V4.44811V4.43094V4.41385V4.39682V4.37987V4.36298V4.34616V4.32941V4.31274V4.29613V4.2796V4.26314V4.24675V4.23043V4.21418V4.19801V4.18191V4.16588V4.14993V4.13405V4.11825V4.10252V4.08687V4.07129V4.05579V4.04037V4.02502V4.00975V3.99456V3.97944V3.9644V3.94944V3.93456V3.91976V3.90504V3.89039V3.87583V3.86135V3.84695V3.83263V3.81839V3.80423V3.79016V3.77616V3.76225V3.74843V3.73468V3.72102V3.70745V3.69396V3.68055V3.66723V3.65399V3.64084V3.62778L19.7 3.59641C19.7 3.06671 19.7 2.58476 19.6656 2.18366C19.6312 1.78149 19.5555 1.34589 19.3289 0.968236C18.8092 0.102141 17.8163 0 16.85 0ZM8.72899 6.34996C8.70399 6.5754 8.70298 6.83789 8.70298 7.18333L8.70298 10.85L8.70299 14.5167C8.70299 14.5248 8.70287 14.533 8.70264 14.5412C8.67786 15.4007 8.83431 15.6912 8.92728 15.7908C9.00764 15.8769 9.20959 16 9.84972 16C10.4755 16 10.6837 15.8784 10.7693 15.7876C10.8644 15.6868 11.0242 15.3957 10.9969 14.5439C10.9966 14.5348 10.9965 14.5258 10.9965 14.5167V10.85L10.9965 7.18333C10.9965 6.83789 10.9955 6.5754 10.9705 6.34996C10.9458 6.12778 10.904 6.01411 10.8677 5.95346L10.8665 5.9514C10.843 5.91168 10.7182 5.7 9.84972 5.7C8.98123 5.7 8.8564 5.91168 8.83297 5.9514L8.83175 5.95346C8.79542 6.01411 8.75364 6.12778 8.72899 6.34996ZM7.37338 5.07987C7.85235 4.28028 8.73781 4 9.84972 4C10.9616 4 11.8471 4.28028 12.3261 5.07987C12.5393 5.43589 12.6223 5.82222 12.6601 6.16254C12.6965 6.49099 12.6965 6.84359 12.6965 7.15862L12.6965 7.18333L12.6965 10.85V14.5034C12.7261 15.4793 12.5762 16.3495 12.006 16.954C11.4235 17.5716 10.604 17.7 9.84972 17.7C9.08817 17.7 8.26533 17.5731 7.68453 16.9508C7.11879 16.3447 6.97649 15.4735 7.00299 14.5047L7.00298 10.85L7.00298 7.18333L7.00298 7.15862C7.00295 6.84359 7.00292 6.49099 7.03936 6.16254C7.07711 5.82222 7.16012 5.43589 7.37338 5.07987ZM1.72708 11.3696C1.70087 11.6334 1.7 11.9518 1.7 12.3778V15.1443C1.7 15.6248 1.81618 15.7563 1.87249 15.8039C1.9641 15.8814 2.21205 16 2.85 16C3.4737 16 3.72545 15.8827 3.82204 15.8017C3.88285 15.7507 4 15.6165 4 15.1443V15.1372V15.1301V15.123V15.1159V15.1089V15.1018V15.0948V15.0878V15.0808V15.0738V15.0668V15.0599V15.0529V15.046V15.0391V15.0322V15.0253V15.0184V15.0116V15.0047V14.9979V14.9911V14.9843V14.9775V14.9707V14.9639V14.9572V14.9504V14.9437V14.937V14.9303V14.9236V14.917V14.9103V14.9037V14.897V14.8904V14.8838V14.8772V14.8706V14.864V14.8575V14.8509V14.8444V14.8379V14.8314V14.8249V14.8184V14.812V14.8055V14.799V14.7926V14.7862V14.7798V14.7734V14.767V14.7606V14.7543V14.7479V14.7416V14.7353V14.729V14.7227V14.7164V14.7101V14.7038V14.6976V14.6913V14.6851V14.6789V14.6727V14.6665V14.6603V14.6541V14.648V14.6418V14.6357V14.6295V14.6234V14.6173V14.6112V14.6051V14.599V14.593V14.5869V14.5809V14.5748V14.5688V14.5628V14.5568V14.5508V14.5448V14.5389V14.5329V14.527V14.521V14.5151V14.5092V14.5033V14.4974V14.4915V14.4856V14.4797V14.4739V14.468V14.4622V14.4563V14.4505V14.4447V14.4389V14.4331V14.4273V14.4216V14.4158V14.41V14.4043V14.3985V14.3928V14.3871V14.3814V14.3757V14.37V14.3643V14.3586V14.353V14.3473V14.3417V14.336V14.3304V14.3248V14.3192V14.3136V14.308V14.3024V14.2968V14.2912V14.2857V14.2801V14.2746V14.2691V14.2635V14.258V14.2525V14.247V14.2415V14.236V14.2305V14.225V14.2196V14.2141V14.2087V14.2032V14.1978V14.1924V14.1869V14.1815V14.1761V14.1707V14.1653V14.16V14.1546V14.1492V14.1438V14.1385V14.1331V14.1278V14.1225V14.1171V14.1118V14.1065V14.1012V14.0959V14.0906V14.0853V14.08V14.0748V14.0695V14.0642V14.059V14.0537V14.0485V14.0433V14.038V14.0328V14.0276V14.0224V14.0172V14.012V14.0068V14.0016V13.9964V13.9912V13.9861V13.9809V13.9757V13.9706V13.9654V13.9603V13.9552V13.95V13.9449V13.9398V13.9347V13.9296V13.9245V13.9194V13.9143V13.9092V13.9041V13.899V13.8939V13.8889V13.8838V13.8787V13.8737V13.8686V13.8636V13.8585V13.8535V13.8485V13.8434V13.8384V13.8334V13.8284V13.8234V13.8184V13.8134V13.8084V13.8034V13.7984V13.7934V13.7884V13.7834V13.7785V13.7735V13.7685V13.7636V13.7586V13.7536V13.7487V13.7437V13.7388V13.7338V13.7289V13.724V13.719V13.7141V13.7092V13.7043V13.6993V13.6944V13.6895V13.6846V13.6797V13.6748V13.6699V13.665V13.6601V13.6552V13.6503V13.6454V13.6405V13.6356V13.6308V13.6259V13.621V13.6161V13.6113V13.6064V13.6015V13.5967V13.5918V13.5869V13.5821V13.5772V13.5724V13.5675V13.5627V13.5578V13.553V13.5481V13.5433V13.5384V13.5336V13.5288V13.5239V13.5191V13.5142V13.5094V13.5046V13.4997V13.4949V13.4901V13.4852V13.4804V13.4756V13.4708V13.4659V13.4611V13.4563V13.4515V13.4467V13.4418V13.437V13.4322V13.4274V13.4226V13.4177V13.4129V13.4081V13.4033V13.3985V13.3936V13.3888V13.384V13.3792V13.3744V13.3696V13.3647V13.3599V13.3551V13.3503V13.3455V13.3407V13.3358V13.331V13.3262V13.3214V13.3166V13.3117V13.3069V13.3021V13.2973V13.2925V13.2876V13.2828V13.278V13.2732V13.2683V13.2635V13.2587V13.2538V13.249V13.2442V13.2393V13.2345V13.2297V13.2248V13.22V13.2151V13.2103V13.2055V13.2006V13.1958V13.1909V13.1861V13.1812V13.1763V13.1715V13.1666V13.1618V13.1569V13.152V13.1472V13.1423V13.1374V13.1326V13.1277V13.1228V13.1179V13.113V13.1082V13.1033V13.0984V13.0935V13.0886V13.0837V13.0788V13.0739V13.069V13.0641V13.0591V13.0542V13.0493V13.0444V13.0395V13.0345V13.0296V13.0247V13.0197V13.0148V13.0098V13.0049V12.9999V12.995V12.99V12.985V12.9801V12.9751V12.9701V12.9651V12.9602V12.9552V12.9502V12.9452V12.9402V12.9352V12.9302V12.9252V12.9202V12.9151V12.9101V12.9051V12.9V12.895V12.89V12.8849V12.8799V12.8748V12.8698V12.8647V12.8596V12.8545V12.8495V12.8444V12.8393V12.8342V12.8291V12.824V12.8189V12.8138V12.8086V12.8035V12.7984V12.7932V12.7881V12.7829V12.7778V12.7726V12.7675V12.7623V12.7571V12.7519V12.7468V12.7416V12.7364V12.7312V12.7259V12.7207V12.7155V12.7103V12.705V12.6998V12.6945V12.6893V12.684V12.6788V12.6735V12.6682V12.6629V12.6576V12.6523V12.647V12.6417V12.6364V12.631V12.6257V12.6204V12.615V12.6097V12.6043V12.5989V12.5936V12.5882V12.5828V12.5774V12.572V12.5666V12.5611V12.5557V12.5503V12.5448V12.5394V12.5339V12.5285V12.523V12.5175V12.512V12.5065V12.501V12.4955V12.49V12.4844V12.4789V12.4734V12.4678V12.4622V12.4567V12.4511V12.4455V12.4399V12.4343V12.4287V12.4231V12.4174V12.4118V12.4061V12.4005V12.3948V12.3929L3.99308 12.1906V12.1906C3.98203 11.8614 3.97338 11.604 3.94882 11.3769C3.91934 11.1043 3.87493 10.9772 3.83959 10.9153L3.83892 10.9138C3.82991 10.8937 3.74333 10.7 2.85 10.7C1.95276 10.7 1.84828 10.8958 1.8339 10.9228L1.8328 10.9248C1.79832 10.9835 1.75325 11.1063 1.72708 11.3696ZM0.367198 10.0634C0.857456 9.22927 1.7752 9 2.85 9C3.92677 9 4.83575 9.23063 5.31623 10.0729C5.52353 10.4363 5.60043 10.8379 5.63897 11.1941C5.67099 11.4902 5.68205 11.8252 5.69293 12.1546C5.69506 12.2192 5.69719 12.2836 5.69946 12.3475L5.69975 12.3572L5.7 12.3778V12.3835V12.3892V12.3948V12.4005V12.4061V12.4118V12.4174V12.4231V12.4287V12.4343V12.4399V12.4455V12.4511V12.4567V12.4622V12.4678V12.4734V12.4789V12.4844V12.49V12.4955V12.501V12.5065V12.512V12.5175V12.523V12.5285V12.5339V12.5394V12.5448V12.5503V12.5557V12.5611V12.5666V12.572V12.5774V12.5828V12.5882V12.5936V12.5989V12.6043V12.6097V12.615V12.6204V12.6257V12.631V12.6364V12.6417V12.647V12.6523V12.6576V12.6629V12.6682V12.6735V12.6788V12.684V12.6893V12.6945V12.6998V12.705V12.7103V12.7155V12.7207V12.7259V12.7312V12.7364V12.7416V12.7468V12.7519V12.7571V12.7623V12.7675V12.7726V12.7778V12.7829V12.7881V12.7932V12.7984V12.8035V12.8086V12.8138V12.8189V12.824V12.8291V12.8342V12.8393V12.8444V12.8495V12.8545V12.8596V12.8647V12.8698V12.8748V12.8799V12.8849V12.89V12.895V12.9V12.9051V12.9101V12.9151V12.9202V12.9252V12.9302V12.9352V12.9402V12.9452V12.9502V12.9552V12.9602V12.9651V12.9701V12.9751V12.9801V12.985V12.99V12.995V12.9999V13.0049V13.0098V13.0148V13.0197V13.0247V13.0296V13.0345V13.0395V13.0444V13.0493V13.0542V13.0591V13.0641V13.069V13.0739V13.0788V13.0837V13.0886V13.0935V13.0984V13.1033V13.1082V13.113V13.1179V13.1228V13.1277V13.1326V13.1374V13.1423V13.1472V13.152V13.1569V13.1618V13.1666V13.1715V13.1763V13.1812V13.1861V13.1909V13.1958V13.2006V13.2055V13.2103V13.2151V13.22V13.2248V13.2297V13.2345V13.2393V13.2442V13.249V13.2538V13.2587V13.2635V13.2683V13.2732V13.278V13.2828V13.2876V13.2925V13.2973V13.3021V13.3069V13.3117V13.3166V13.3214V13.3262V13.331V13.3358V13.3407V13.3455V13.3503V13.3551V13.3599V13.3647V13.3696V13.3744V13.3792V13.384V13.3888V13.3936V13.3985V13.4033V13.4081V13.4129V13.4177V13.4226V13.4274V13.4322V13.437V13.4418V13.4467V13.4515V13.4563V13.4611V13.4659V13.4708V13.4756V13.4804V13.4852V13.4901V13.4949V13.4997V13.5046V13.5094V13.5142V13.5191V13.5239V13.5288V13.5336V13.5384V13.5433V13.5481V13.553V13.5578V13.5627V13.5675V13.5724V13.5772V13.5821V13.5869V13.5918V13.5967V13.6015V13.6064V13.6113V13.6161V13.621V13.6259V13.6308V13.6356V13.6405V13.6454V13.6503V13.6552V13.6601V13.665V13.6699V13.6748V13.6797V13.6846V13.6895V13.6944V13.6993V13.7043V13.7092V13.7141V13.719V13.724V13.7289V13.7338V13.7388V13.7437V13.7487V13.7536V13.7586V13.7636V13.7685V13.7735V13.7785V13.7834V13.7884V13.7934V13.7984V13.8034V13.8084V13.8134V13.8184V13.8234V13.8284V13.8334V13.8384V13.8434V13.8485V13.8535V13.8585V13.8636V13.8686V13.8737V13.8787V13.8838V13.8889V13.8939V13.899V13.9041V13.9092V13.9143V13.9194V13.9245V13.9296V13.9347V13.9398V13.9449V13.95V13.9552V13.9603V13.9654V13.9706V13.9757V13.9809V13.9861V13.9912V13.9964V14.0016V14.0068V14.012V14.0172V14.0224V14.0276V14.0328V14.038V14.0433V14.0485V14.0537V14.059V14.0642V14.0695V14.0748V14.08V14.0853V14.0906V14.0959V14.1012V14.1065V14.1118V14.1171V14.1225V14.1278V14.1331V14.1385V14.1438V14.1492V14.1546V14.16V14.1653V14.1707V14.1761V14.1815V14.1869V14.1924V14.1978V14.2032V14.2087V14.2141V14.2196V14.225V14.2305V14.236V14.2415V14.247V14.2525V14.258V14.2635V14.2691V14.2746V14.2801V14.2857V14.2912V14.2968V14.3024V14.308V14.3136V14.3192V14.3248V14.3304V14.336V14.3417V14.3473V14.353V14.3586V14.3643V14.37V14.3757V14.3814V14.3871V14.3928V14.3985V14.4043V14.41V14.4158V14.4216V14.4273V14.4331V14.4389V14.4447V14.4505V14.4563V14.4622V14.468V14.4739V14.4797V14.4856V14.4915V14.4974V14.5033V14.5092V14.5151V14.521V14.527V14.5329V14.5389V14.5448V14.5508V14.5568V14.5628V14.5688V14.5748V14.5809V14.5869V14.593V14.599V14.6051V14.6112V14.6173V14.6234V14.6295V14.6357V14.6418V14.648V14.6541V14.6603V14.6665V14.6727V14.6789V14.6851V14.6913V14.6976V14.7038V14.7101V14.7164V14.7227V14.729V14.7353V14.7416V14.7479V14.7543V14.7606V14.767V14.7734V14.7798V14.7862V14.7926V14.799V14.8055V14.812V14.8184V14.8249V14.8314V14.8379V14.8444V14.8509V14.8575V14.864V14.8706V14.8772V14.8838V14.8904V14.897V14.9037V14.9103V14.917V14.9236V14.9303V14.937V14.9437V14.9504V14.9572V14.9639V14.9707V14.9775V14.9843V14.9911V14.9979V15.0047V15.0116V15.0184V15.0253V15.0322V15.0391V15.046V15.0529V15.0599V15.0668V15.0738V15.0808V15.0878V15.0948V15.1018V15.1089V15.1159V15.123V15.1301V15.1372V15.1443C5.7 15.8874 5.50829 16.606 4.91467 17.1041C4.35684 17.5721 3.60858 17.7 2.85 17.7C2.08398 17.7 1.33193 17.5734 0.774533 17.1018C0.18184 16.6004 8.52302e-07 15.879 8.52302e-07 15.1443V12.3778V12.3503V12.3503C-1.77452e-05 11.9586 -3.67537e-05 11.5583 0.0354168 11.2015C0.0717473 10.8359 0.151677 10.4301 0.367198 10.0634Z" fill="#9A9A9A"/>
</svg>
