<svg width="20" height="21" viewBox="0 0 20 21" fill="none" xmlns="http://www.w3.org/2000/svg">
<path fill-rule="evenodd" clip-rule="evenodd" d="M4.45565 5.36379C6.04383 5.90876 7.70714 4.8149 8.00262 3.30576C8.18428 2.52141 8.3975 2.17841 8.60905 2.00286C8.81325 1.83341 9.16158 1.7 9.91835 1.7C10.504 1.7 10.8364 1.8473 11.0535 2.05131C11.287 2.27073 11.5035 2.66471 11.6334 3.37742L11.6334 3.37743L11.6342 3.38189C11.7896 4.20916 12.3591 4.83299 13.0211 5.1781C13.685 5.5242 14.5179 5.6332 15.3031 5.35676C15.3141 5.35292 15.3249 5.34886 15.3356 5.34457C16.0888 5.04431 16.4982 5.05025 16.7482 5.13469C16.9941 5.21773 17.2762 5.44081 17.6251 6.03205C17.9818 6.63636 18.0288 6.95881 17.9878 7.17686C17.945 7.40515 17.7639 7.74271 17.1275 8.27089L17.1158 8.28073C15.8386 9.37986 15.8386 11.3201 17.1158 12.4193L17.1275 12.4291C17.7639 12.9573 17.945 13.2949 17.9878 13.5231C18.0288 13.7412 17.9818 14.0636 17.6251 14.6679C17.2781 15.2558 16.9918 15.4892 16.7321 15.5828C16.4669 15.6784 16.0497 15.6928 15.2989 15.4368C13.7761 14.9035 11.9263 15.8108 11.6319 17.5208C11.5011 18.2805 11.2908 18.5811 11.1028 18.7267C10.9002 18.8837 10.5471 19 9.82023 19C9.12062 19 8.7606 18.8698 8.54905 18.7001C8.34405 18.5356 8.13642 18.2194 8.00772 17.5162C7.7108 15.8091 5.86304 14.904 4.34154 15.4368C3.59078 15.6928 3.17358 15.6784 2.90836 15.5828C2.64862 15.4892 2.36232 15.2558 2.01532 14.6679C2.01057 14.6599 2.00569 14.6519 2.00067 14.644C1.69561 14.1641 1.6637 13.8315 1.72828 13.5701C1.80086 13.2762 2.03773 12.8989 2.60698 12.4325L2.62277 12.4193C3.92199 11.3012 3.7793 9.36336 2.52831 8.37705C1.96071 7.82074 1.7835 7.46707 1.74232 7.21078C1.70313 6.96685 1.75942 6.63513 2.10623 6.04432C2.42428 5.54781 2.71786 5.33717 3.00544 5.24858C3.3142 5.15347 3.75832 5.15481 4.45565 5.36379ZM9.91835 0C9.00699 0 8.17782 0.151595 7.52343 0.69464C6.87766 1.23052 6.55251 2.0244 6.34239 2.93984C6.33985 2.95088 6.33754 2.96198 6.33545 2.97311C6.22939 3.53782 5.55787 3.94965 4.99997 3.75324C4.98802 3.74903 4.97598 3.74509 4.96385 3.74142C4.10034 3.48017 3.27324 3.38725 2.50496 3.62392C1.7154 3.86714 1.12819 4.4139 0.664094 5.14403C0.659078 5.15192 0.654192 5.1599 0.649439 5.16795C0.217681 5.89946 -0.0684092 6.65733 0.0638469 7.48047C0.193597 8.28801 0.6972 8.97064 1.37896 9.63069C1.40417 9.65509 1.43086 9.67791 1.45889 9.69902C1.92886 10.0529 1.96455 10.7361 1.52022 11.1252C0.818402 11.7021 0.27427 12.3673 0.0778824 13.1624C-0.12629 13.989 0.0837679 14.7923 0.558336 15.5439C0.995179 16.2808 1.54133 16.8973 2.33219 17.1822C3.12145 17.4665 3.97907 17.3571 4.89443 17.0443L4.89444 17.0444L4.90185 17.0418C5.53693 16.8182 6.23532 17.2408 6.33317 17.8092L6.33312 17.8092L6.33462 17.8174C6.50035 18.7266 6.83205 19.5021 7.4853 20.0262C8.13234 20.5452 8.94983 20.7 9.82023 20.7C10.6634 20.7 11.4878 20.5788 12.1438 20.0708C12.8144 19.5514 13.1437 18.7595 13.3073 17.8092C13.4051 17.2408 14.1035 16.8182 14.7386 17.0418L14.7386 17.0418L14.746 17.0443C15.6614 17.3571 16.519 17.4665 17.3083 17.1822C18.1034 16.8958 18.6511 16.2742 19.0891 15.5321C19.5175 14.8064 19.8139 14.0363 19.6586 13.2094C19.5057 12.3952 18.9537 11.7368 18.2199 11.1265C17.7373 10.7065 17.7373 9.99351 18.2199 9.57346C18.9537 8.96323 19.5057 8.30484 19.6586 7.49064C19.8139 6.66369 19.5175 5.89364 19.0891 5.16795C18.6531 4.42919 18.1011 3.79727 17.2922 3.52406C16.4929 3.25414 15.6331 3.39865 14.7252 3.75786C14.434 3.85576 14.0954 3.82098 13.807 3.67065C13.513 3.5174 13.3468 3.28703 13.3053 3.06978C13.1407 2.16865 12.8175 1.37618 12.2176 0.812441C11.6007 0.232704 10.8046 0 9.91835 0ZM7.7003 10.35C7.7003 9.16259 8.66288 8.2 9.8503 8.2C11.0377 8.2 12.0003 9.16259 12.0003 10.35C12.0003 11.5374 11.0377 12.5 9.8503 12.5C8.66288 12.5 7.7003 11.5374 7.7003 10.35ZM9.8503 6.5C7.724 6.5 6.0003 8.2237 6.0003 10.35C6.0003 12.4763 7.724 14.2 9.8503 14.2C11.9766 14.2 13.7003 12.4763 13.7003 10.35C13.7003 8.2237 11.9766 6.5 9.8503 6.5Z" fill="#9A9A9A"/>
</svg>
