<svg width="18" height="18" viewBox="0 0 18 18" fill="none" xmlns="http://www.w3.org/2000/svg">
<path d="M17.3659 14.1298C18.2053 10.7724 18.2053 7.22365 17.3659 3.86615C16.9671 2.26945 15.7273 1.03025 14.1302 0.62985H14.1291C10.7727 -0.20995 7.22385 -0.20995 3.86545 0.62985C2.26825 1.03025 1.02855 2.26955 0.62955 3.86625C-0.20985 7.22365 -0.20985 10.7725 0.62955 14.13C1.02845 15.7267 2.26825 16.9659 3.86635 17.3663C5.54455 17.7862 7.27115 17.9952 8.99765 17.9952C10.7241 17.9952 12.4508 17.7862 14.13 17.3663C15.7273 16.9659 16.9669 15.7265 17.3659 14.1298ZM4.35175 15.4267C3.47185 15.206 2.78925 14.5234 2.57005 13.6455C1.80975 10.6055 1.80975 7.39065 2.57005 4.35065C2.78925 3.47265 3.47185 2.79005 4.35075 2.56935C5.87075 2.19045 7.43425 2.00005 8.99775 2.00005C10.5613 2.00005 12.1248 2.19045 13.6447 2.56935C14.5236 2.79005 15.2062 3.47265 15.4255 4.35055C16.1859 7.39055 16.1859 10.6054 15.4255 13.6454C15.2063 14.5233 14.5236 15.2059 13.6447 15.4267C10.6038 16.1845 7.39085 16.1845 4.35175 15.4267Z" fill="#8B909A"/>
<path d="M5.9978 7.99805C5.4456 7.99805 4.9978 8.44535 4.9978 8.99805V11.998C4.9978 12.5507 5.4456 12.998 5.9978 12.998C6.55 12.998 6.9978 12.5507 6.9978 11.998V8.99805C6.9978 8.44535 6.55 7.99805 5.9978 7.99805ZM11.9978 8.99805C11.4456 8.99805 10.9978 9.44535 10.9978 9.99805V11.998C10.9978 12.5507 11.4456 12.998 11.9978 12.998C12.55 12.998 12.9978 12.5507 12.9978 11.998V9.99805C12.9978 9.44535 12.55 8.99805 11.9978 8.99805ZM8.9978 4.99805C8.4456 4.99805 7.9978 5.44535 7.9978 5.99805V11.998C7.9978 12.5507 8.4456 12.998 8.9978 12.998C9.55 12.998 9.9978 12.5507 9.9978 11.998V5.99805C9.9978 5.44535 9.55 4.99805 8.9978 4.99805Z" fill="#8B909A"/>
</svg>
