<svg width="21" height="21" viewBox="0 0 21 21" fill="none" xmlns="http://www.w3.org/2000/svg">
<g clip-path="url(#clip0_9_12800)">
<path d="M13.398 20.778C12.7699 20.7475 12.1494 20.6263 11.556 20.418C11.1202 20.2625 10.6667 20.1618 10.206 20.118C9.76572 20.141 9.32919 20.2114 8.90401 20.328C8.01601 20.544 7.00201 20.79 6.05401 20.364C5.10601 19.938 4.62001 19.02 4.20001 18.21C4.01285 17.8105 3.77706 17.4357 3.49801 17.094C3.16808 16.7766 2.79912 16.5024 2.40001 16.278C1.63201 15.804 0.76801 15.264 0.414011 14.334C0.0600106 13.404 0.324011 12.42 0.600011 11.562C0.749905 11.1214 0.844627 10.6639 0.882011 10.2C0.86547 9.75906 0.794944 9.3218 0.672011 8.89801C0.456011 8.01001 0.210011 7.00201 0.636011 6.04801C1.12577 5.20731 1.88463 4.55626 2.79001 4.20001C3.1898 4.01097 3.56465 3.77316 3.90601 3.49201C4.22153 3.16265 4.49556 2.79592 4.72201 2.40001C5.19601 1.60201 5.73601 0.738008 6.67201 0.384008C7.60801 0.0300082 8.58001 0.324008 9.44401 0.600008C9.87969 0.756083 10.3332 0.856871 10.794 0.900008C11.2349 0.878185 11.6717 0.805708 12.096 0.684008C12.984 0.474008 13.998 0.228008 14.946 0.654008C15.7859 1.13816 16.4388 1.89039 16.8 2.79001C16.9872 3.18949 17.223 3.56433 17.502 3.90601C17.8394 4.22512 18.2165 4.49938 18.624 4.72201C19.392 5.19601 20.256 5.73601 20.61 6.66601C20.964 7.59601 20.67 8.58001 20.412 9.44401C20.2565 9.87986 20.1558 10.3333 20.112 10.794C20.1285 11.235 20.1991 11.6722 20.322 12.096C20.538 12.984 20.784 13.992 20.358 14.946C19.932 15.894 19.014 16.38 18.204 16.806C17.8035 16.9947 17.4268 17.2303 17.082 17.508C16.767 17.8474 16.495 18.2242 16.272 18.63C15.798 19.398 15.258 20.262 14.328 20.616C14.0307 20.727 13.7154 20.7819 13.398 20.778ZM10.152 18.6H10.248C10.8413 18.6434 11.4262 18.7645 11.988 18.96C12.5559 19.2143 13.1855 19.2976 13.8 19.2C14.256 19.032 14.616 18.444 15 17.826C15.2925 17.309 15.6493 16.8312 16.062 16.404C16.5023 16.0319 16.9882 15.7173 17.508 15.468C18.1092 15.2436 18.6281 14.8419 18.996 14.316C19.146 13.6918 19.102 13.0366 18.87 12.438C18.7074 11.8901 18.6166 11.3233 18.6 10.752C18.6434 10.1588 18.7645 9.57378 18.96 9.01201C19.2143 8.44412 19.2976 7.8145 19.2 7.20001C19.026 6.74401 18.444 6.38401 17.826 6.00001C17.309 5.70754 16.8312 5.35069 16.404 4.93801C16.0361 4.49705 15.7256 4.01117 15.48 3.49201C15.2536 2.89188 14.8523 2.37352 14.328 2.00401C13.7042 1.85438 13.0497 1.8962 12.45 2.12401C11.9001 2.29661 11.3283 2.38955 10.752 2.40001C10.1541 2.35072 9.56509 2.22364 9.00001 2.02201C8.43437 1.77451 7.80883 1.69736 7.20001 1.80001C6.74401 1.97401 6.38401 2.55601 6.00001 3.17401C5.70669 3.68679 5.34988 4.16052 4.93801 4.58401C4.49773 4.95616 4.01181 5.2707 3.49201 5.52001C2.89188 5.74641 2.37352 6.14772 2.00401 6.67201C1.85438 7.29584 1.8962 7.95029 2.12401 8.55001C2.29329 9.10071 2.38616 9.67204 2.40001 10.248C2.35072 10.846 2.22365 11.4349 2.02201 12C1.77452 12.5656 1.69737 13.1912 1.80001 13.8C1.97401 14.256 2.55601 14.616 3.17401 15C3.691 15.2925 4.16881 15.6493 4.59601 16.062C4.96396 16.503 5.27444 16.9889 5.52001 17.508C5.74641 18.1081 6.14772 18.6265 6.67201 18.996C7.29651 19.143 7.95074 19.0991 8.55001 18.87C9.07154 18.7174 9.60925 18.6267 10.152 18.6Z" fill="#9A9A9A"/>
<path d="M9.36 13.362C9.26344 13.3631 9.16761 13.3452 9.07802 13.3091C8.98843 13.2731 8.90686 13.2197 8.838 13.152L6.678 11.034C6.60787 10.9654 6.55194 10.8837 6.51338 10.7936C6.47483 10.7034 6.45441 10.6065 6.4533 10.5085C6.45218 10.4104 6.47039 10.3131 6.50689 10.2221C6.54338 10.131 6.59745 10.0481 6.666 9.97798C6.73455 9.90786 6.81624 9.85192 6.90641 9.81336C6.99658 9.77481 7.09346 9.75439 7.19151 9.75328C7.28957 9.75216 7.38689 9.77037 7.47791 9.80687C7.56893 9.84336 7.65187 9.89743 7.722 9.96598L9.366 11.574L13.284 7.84198C13.3541 7.76839 13.4384 7.70981 13.5319 7.6698C13.6253 7.62979 13.7259 7.60919 13.8275 7.60925C13.9291 7.60931 14.0297 7.63003 14.1231 7.67014C14.2165 7.71026 14.3007 7.76894 14.3707 7.84261C14.4408 7.91629 14.4951 8.00343 14.5304 8.09873C14.5657 8.19404 14.5812 8.29553 14.5761 8.39704C14.571 8.49854 14.5453 8.59795 14.5006 8.68922C14.4559 8.78049 14.3931 8.86172 14.316 8.92798L9.876 13.128C9.80965 13.1991 9.7299 13.2563 9.64135 13.2965C9.5528 13.3366 9.45718 13.3589 9.36 13.362Z" fill="#9A9A9A"/>
</g>
<defs>
<clipPath id="clip0_9_12800">
<rect width="21" height="21" fill="white"/>
</clipPath>
</defs>
</svg>
